<?xml version="1.0" encoding="iso-8859-1"?>
<!-- Uploaded to: SVG Repo, www.svgrepo.com, Generator: SVG Repo Mixer Tools -->
<svg fill="#000000" height="800px" width="800px" version="1.1" id="Layer_1" xmlns="http://www.w3.org/2000/svg" xmlns:xlink="http://www.w3.org/1999/xlink" 
	 viewBox="0 0 504 504" xml:space="preserve">
<g>
	<g>
		<path d="M495.947,111.21c-18.032-31.24-62.452-43.284-125.068-33.92c-6.476,0.976-10.94,7.008-9.968,13.488
			c0.964,6.48,7.008,10.944,13.48,9.98c51.556-7.712,88.372,0.42,101.012,22.316c24.088,41.72-39.852,138.192-173.432,215.312
			c-61.076,35.264-123.98,58.544-177.132,65.56c-48.868,6.448-83.876-1.936-96.048-23.016c-12.636-21.892-1.284-57.828,31.14-98.592
			c4.076-5.128,3.228-12.588-1.9-16.668c-5.116-4.08-12.584-3.228-16.664,1.896C1.979,317.09-9.785,361.562,8.243,392.794
			c14.02,24.272,44.172,37,86.408,37c10.392,0,21.508-0.776,33.292-2.336c56.16-7.412,122.18-31.752,185.888-68.532
			C450.571,279.978,530.563,171.17,495.947,111.21z"/>
	</g>
</g>
<g>
	<g>
		<path d="M252.099,38.574c-117.684,0-213.432,95.744-213.432,213.428c0,69.496,33.408,131.32,84.984,170.32
			c5.712-0.348,11.656-0.92,17.828-1.74c53.152-7.012,116.06-30.296,177.132-65.56c66.98-38.668,116.436-82.204,146.084-121.264
			C455.403,124.59,363.631,38.574,252.099,38.574z"/>
	</g>
</g>
<g>
	<g>
		<path d="M330.471,375.566c-59.5,34.352-121.008,57.84-174.616,66.832c28.936,14.692,61.624,23.028,96.248,23.028
			c111.5,0,203.248-85.964,212.588-195.088C431.775,306.83,385.767,343.642,330.471,375.566z"/>
	</g>
</g>
</svg>